<svg enable-background="new 0 0 50.6 100" viewBox="0 0 50.6 100" xmlns="http://www.w3.org/2000/svg"><path d="m46.1 74.1-7.4-12.2c1.4-4.7 2.5-10 2.5-15.1 0-.7 0-1.3-.1-2-.7-13.6-6-18.5-9.9-22.4-1.9-1.9-3.3-3.4-4.3-5.7v-.1c.6-.1 1.1-.3 1.7-.6.7-.4 1.1-1.2 1.1-2.1l-.2-.5c-.3-.3-1.3-.5-2.8-.6-.1-.9-.1-1.8 0-2.6 0-.4 0-.4.7-.5h.1c.3 0 .6-.2.8-.5.3-.6-.1-1.2-.3-1.5v-.1l-.1-.2c-1-2.6-1.6-4.4-1.6-5.4s-.3-1.7-.6-1.9c-.2-.1-.5-.1-.7 0-.1.1-.6.3-.6 1.8 0 .7-.3 2.2-1.6 5.5v.2l-.1.1c-.2.3-.4.7-.4 1.1 0 .1 0 .3.1.4.2.3.5.5.8.5h.1c.6.1.6.1.7.5.1.5.1 1.1.1 1.6 0 .3 0 .7-.1 1-1.5.1-2.5.3-2.8.6l-.2.5c0 .8.4 1.6 1.1 2.1.5.3 1.1.5 1.7.6l-.1.1c-1 2.3-2.6 3.9-4.5 5.8-3.9 3.9-9.2 8.8-9.9 22.3 0 .7-.1 1.3-.1 2 0 5.2 1.1 10.5 2.5 15.1l-7.2 12.2-4.5 25.9h5l4.7-16.5 7.9-6.7.4.2.8.3c.2.8.3 1.7.4 2.2s.2 1.5 4 1.7v18.8h4.2v-18.8c3.9-.2 4.1-1.3 4.2-1.7s.2-1.4.4-2.2l.9-.3h.1l7.9 6.6 4.7 16.5h5z" fill="#b4fff4"/></svg>