<?xml version="1.0" encoding="utf-8"?>
<!-- Generator: Adobe Illustrator 23.1.1, SVG Export Plug-In . SVG Version: 6.00 Build 0)  -->
<svg version="1.1" id="Layer_1" xmlns="http://www.w3.org/2000/svg" xmlns:xlink="http://www.w3.org/1999/xlink" x="0px" y="0px"
	 viewBox="0 0 50.6 100" style="enable-background:new 0 0 50.6 100;" xml:space="preserve">
<style type="text/css">
	.st0{fill:#B4FFF4;}
</style>
<path class="st0" d="M46.1,74.1l-7.4-12.2c1.4-4.7,2.5-10,2.5-15.1c0-0.7,0-1.3-0.1-2c-0.7-13.6-6-18.5-9.9-22.4
	c-1.9-1.9-3.3-3.4-4.3-5.7c0,0,0-0.1,0-0.1c0.6-0.1,1.1-0.3,1.7-0.6c0.7-0.4,1.1-1.2,1.1-2.1l-0.2-0.5c-0.3-0.3-1.3-0.5-2.8-0.6
	c-0.1-0.9-0.1-1.8,0-2.6c0-0.4,0-0.4,0.7-0.5h0.1c0.3,0,0.6-0.2,0.8-0.5C28.6,8.6,28.2,8,28,7.7L28,7.6l-0.1-0.2
	c-1-2.6-1.6-4.4-1.6-5.4S26,0.3,25.7,0.1c-0.2-0.1-0.5-0.1-0.7,0c-0.1,0.1-0.6,0.3-0.6,1.8c0,0.7-0.3,2.2-1.6,5.5v0.2l-0.1,0.1
	c-0.2,0.3-0.4,0.7-0.4,1.1c0,0.1,0,0.3,0.1,0.4c0.2,0.3,0.5,0.5,0.8,0.5h0.1c0.6,0.1,0.6,0.1,0.7,0.5c0.1,0.5,0.1,1.1,0.1,1.6
	c0,0.3,0,0.7-0.1,1c-1.5,0.1-2.5,0.3-2.8,0.6l-0.2,0.5c0,0.8,0.4,1.6,1.1,2.1c0.5,0.3,1.1,0.5,1.7,0.6l-0.1,0.1
	c-1,2.3-2.6,3.9-4.5,5.8c-3.9,3.9-9.2,8.8-9.9,22.3c0,0.7-0.1,1.3-0.1,2c0,5.2,1.1,10.5,2.5,15.1L4.5,74.1L0,100h5l4.7-16.5l7.9-6.7
	L18,77l0.8,0.3c0.2,0.8,0.3,1.7,0.4,2.2c0.1,0.5,0.2,1.5,4,1.7V100h4.2V81.2c3.9-0.2,4.1-1.3,4.2-1.7s0.2-1.4,0.4-2.2l0.9-0.3L33,77
	l7.9,6.6l4.7,16.5h5L46.1,74.1z"/>
</svg>
